<svg width="220" height="35" viewBox="0 0 220 35" fill="none" xmlns="http://www.w3.org/2000/svg">
<path d="M80.3063 28.5075C83.9881 28.5075 86.5221 26.6449 87.9515 23.5911L85.201 21.9235C84.4429 23.981 82.8186 25.432 80.3063 25.432C77.0576 25.432 75.065 23.0713 75.065 19.1729V15.9459C75.065 12.0474 77.0576 9.66506 80.3063 9.66506C82.7753 9.66506 84.248 10.9862 84.9844 12.9787L87.8649 11.3977C86.4355 8.2573 83.9881 6.61129 80.3063 6.61129C74.7835 6.61129 71.4265 10.4664 71.4265 17.5486C71.4265 24.6524 74.7835 28.5075 80.3063 28.5075ZM104.758 28.1393V25.432H103.09V17.5269C103.09 14.0183 100.816 12.0041 96.7446 12.0041C93.6909 12.0041 91.8283 13.3036 90.8104 15.0795L92.7812 16.8555C93.5609 15.621 94.6871 14.7114 96.5281 14.7114C98.7372 14.7114 99.7768 15.8376 99.7768 17.7435V19.0646H96.9179C92.5213 19.0646 90.2039 20.689 90.2039 23.8077C90.2039 26.6449 92.0449 28.5075 95.2936 28.5075C97.5893 28.5075 99.3003 27.4679 99.9067 25.497H100.058C100.253 27.0564 101.163 28.1393 102.896 28.1393H104.758ZM96.2249 25.9952C94.6005 25.9952 93.5609 25.2588 93.5609 23.8727V23.3096C93.5609 21.9451 94.6871 21.1871 96.9829 21.1871H99.7768V23.4612C99.7768 25.0205 98.2607 25.9952 96.2249 25.9952ZM113.486 28.1393V25.432H111.299V5.70166H107.985V24.8689C107.985 26.9048 109.111 28.1393 111.364 28.1393H113.486ZM122.734 28.5075C125.766 28.5075 127.91 27.078 128.95 24.5008L126.438 23.158C125.766 24.739 124.64 25.7786 122.734 25.7786C120.308 25.7786 119.052 24.1109 119.052 21.6852V18.8697C119.052 16.444 120.308 14.7763 122.734 14.7763C124.51 14.7763 125.636 15.7076 126.091 17.1587L128.82 15.8809C127.889 13.5635 125.875 12.0041 122.734 12.0041C118.186 12.0041 115.565 15.2312 115.565 20.2558C115.565 25.2804 118.186 28.5075 122.734 28.5075ZM145.843 28.5075C150.695 28.5075 153.51 25.8652 153.51 21.9235C153.51 18.5665 151.604 16.6822 147.381 15.8592L145.497 15.4694C143.223 15.0146 142.14 14.2565 142.14 12.5023C142.14 10.6397 143.526 9.64341 145.951 9.64341C148.291 9.64341 149.807 10.553 150.889 11.9825L153.294 9.85998C151.648 7.75916 149.33 6.61129 146.146 6.61129C141.642 6.61129 138.739 8.90704 138.739 12.6755C138.739 16.0325 140.84 17.9601 144.934 18.7181L146.796 19.043C149.265 19.5194 150.11 20.4724 150.11 22.0967C150.11 24.1326 148.724 25.4754 146.016 25.4754C143.721 25.4754 141.945 24.5224 140.472 22.7031L138.111 24.9339C139.866 27.0997 142.291 28.5075 145.843 28.5075ZM160.701 28.1393V17.5486C160.701 15.7293 162.303 14.863 163.928 14.863C165.877 14.863 166.808 16.0758 166.808 18.5232V28.1393H170.122V17.5486C170.122 15.7293 171.659 14.863 173.327 14.863C175.341 14.863 176.251 16.0975 176.251 18.5232V28.1393H179.543V18.1333C179.543 14.2565 177.702 12.0041 174.583 12.0041C172.028 12.0041 170.403 13.4552 169.819 15.2312H169.732C168.974 13.0437 167.176 12.0041 165.054 12.0041C162.671 12.0041 161.48 13.3469 160.852 14.9713H160.701V12.3723H157.387V28.1393H160.701ZM197.541 28.1393V25.432H195.873V17.5269C195.873 14.0183 193.599 12.0041 189.527 12.0041C186.473 12.0041 184.611 13.3036 183.593 15.0795L185.564 16.8555C186.344 15.621 187.47 14.7114 189.311 14.7114C191.52 14.7114 192.559 15.8376 192.559 17.7435V19.0646H189.701C185.304 19.0646 182.987 20.689 182.987 23.8077C182.987 26.6449 184.827 28.5075 188.076 28.5075C190.372 28.5075 192.083 27.4679 192.689 25.497H192.841C193.036 27.0564 193.945 28.1393 195.678 28.1393H197.541ZM189.007 25.9952C187.383 25.9952 186.344 25.2588 186.344 23.8727V23.3096C186.344 21.9451 187.47 21.1871 189.766 21.1871H192.559V23.4612C192.559 25.0205 191.043 25.9952 189.007 25.9952ZM204.081 28.1393V18.0683C204.081 16.444 205.532 15.556 208.153 15.556H209.453V12.3723H208.565C206.052 12.3723 204.688 13.8017 204.233 15.4044H204.081V12.3723H200.768V28.1393H204.081ZM219.762 28.1393V25.432H216.686V15.0795H220V12.3723H216.686V8.06238H213.719V10.8346C213.719 11.9175 213.351 12.3723 212.268 12.3723H210.925V15.0795H213.394V24.7173C213.394 26.8615 214.607 28.1393 216.881 28.1393H219.762Z" fill="#BEBEBE"/>
<path d="M29.2133 23.6518L42.8997 0H15.5268L29.2133 23.6518ZM13.6864 10.5569L0 34.2087H27.3728L13.6864 10.5569ZM44.7401 10.5569L31.0537 34.2087H58.4265L44.7401 10.5569Z" fill="url(#paint0_linear_203_2)"/>
<defs>
<linearGradient id="paint0_linear_203_2" x1="-5.11744" y1="-1.13452" x2="5290.12" y2="2468.08" gradientUnits="userSpaceOnUse">
<stop stop-color="#BEBEBE"/>
<stop offset="0.395833" stop-color="#00C4EE"/>
</linearGradient>
</defs>
</svg>
