<svg data-v-423bf9ae="" xmlns="http://www.w3.org/2000/svg" viewBox="0 0 565 90" class="iconLeft"><!----><!----><!----><g data-v-423bf9ae="" id="f14f4e93-657e-4978-afd5-fab8fb3c47ef" fill="#08403F" transform="matrix(5.6980053264473165,0,0,5.6980053264473165,169.32730370001923,-7.735042022120943)"><path d="M4.87 14.52C6.57 14.52 7.74 13.66 8.40 12.25L7.13 11.48C6.78 12.43 6.03 13.10 4.87 13.10C3.37 13.10 2.45 12.01 2.45 10.21L2.45 8.72C2.45 6.92 3.37 5.82 4.87 5.82C6.01 5.82 6.69 6.43 7.03 7.35L8.36 6.62C7.70 5.17 6.57 4.41 4.87 4.41C2.32 4.41 0.77 6.19 0.77 9.46C0.77 12.74 2.32 14.52 4.87 14.52ZM16.16 14.35L16.16 13.10L15.39 13.10L15.39 9.45C15.39 7.83 14.34 6.90 12.46 6.90C11.05 6.90 10.19 7.50 9.72 8.32L10.63 9.14C10.99 8.57 11.51 8.15 12.36 8.15C13.38 8.15 13.86 8.67 13.86 9.55L13.86 10.16L12.54 10.16C10.51 10.16 9.44 10.91 9.44 12.35C9.44 13.66 10.29 14.52 11.79 14.52C12.85 14.52 13.64 14.04 13.92 13.13L13.99 13.13C14.08 13.85 14.50 14.35 15.30 14.35ZM12.22 13.36C11.47 13.36 10.99 13.02 10.99 12.38L10.99 12.12C10.99 11.49 11.51 11.14 12.57 11.14L13.86 11.14L13.86 12.19C13.86 12.91 13.16 13.36 12.22 13.36ZM20.19 14.35L20.19 13.10L19.18 13.10L19.18 3.99L17.65 3.99L17.65 12.84C17.65 13.78 18.17 14.35 19.21 14.35ZM24.46 14.52C25.86 14.52 26.85 13.86 27.33 12.67L26.17 12.05C25.86 12.78 25.34 13.26 24.46 13.26C23.34 13.26 22.76 12.49 22.76 11.37L22.76 10.07C22.76 8.95 23.34 8.18 24.46 8.18C25.28 8.18 25.80 8.61 26.01 9.28L27.27 8.69C26.84 7.62 25.91 6.90 24.46 6.90C22.36 6.90 21.15 8.39 21.15 10.71C21.15 13.03 22.36 14.52 24.46 14.52ZM35.13 14.52C37.37 14.52 38.67 13.30 38.67 11.48C38.67 9.93 37.79 9.06 35.84 8.68L34.97 8.50C33.92 8.29 33.42 7.94 33.42 7.13C33.42 6.27 34.06 5.81 35.18 5.81C36.26 5.81 36.96 6.23 37.46 6.89L38.57 5.91C37.81 4.94 36.74 4.41 35.27 4.41C33.19 4.41 31.85 5.47 31.85 7.21C31.85 8.76 32.82 9.65 34.71 10.00L35.57 10.15C36.71 10.37 37.10 10.81 37.10 11.56C37.10 12.50 36.46 13.12 35.21 13.12C34.15 13.12 33.33 12.68 32.65 11.84L31.56 12.87C32.37 13.87 33.49 14.52 35.13 14.52ZM41.99 14.35L41.99 9.46C41.99 8.62 42.73 8.22 43.48 8.22C44.38 8.22 44.81 8.78 44.81 9.91L44.81 14.35L46.34 14.35L46.34 9.46C46.34 8.62 47.05 8.22 47.82 8.22C48.75 8.22 49.17 8.79 49.17 9.91L49.17 14.35L50.69 14.35L50.69 9.73C50.69 7.94 49.84 6.90 48.40 6.90C47.22 6.90 46.47 7.57 46.20 8.39L46.16 8.39C45.81 7.38 44.98 6.90 44.00 6.90C42.90 6.90 42.35 7.52 42.06 8.27L41.99 8.27L41.99 7.07L40.46 7.07L40.46 14.35ZM59.00 14.35L59.00 13.10L58.23 13.10L58.23 9.45C58.23 7.83 57.18 6.90 55.30 6.90C53.89 6.90 53.03 7.50 52.56 8.32L53.47 9.14C53.83 8.57 54.35 8.15 55.20 8.15C56.22 8.15 56.70 8.67 56.70 9.55L56.70 10.16L55.38 10.16C53.35 10.16 52.28 10.91 52.28 12.35C52.28 13.66 53.13 14.52 54.63 14.52C55.69 14.52 56.48 14.04 56.76 13.13L56.83 13.13C56.92 13.85 57.34 14.35 58.14 14.35ZM55.06 13.36C54.31 13.36 53.83 13.02 53.83 12.38L53.83 12.12C53.83 11.49 54.35 11.14 55.41 11.14L56.70 11.14L56.70 12.19C56.70 12.91 56 13.36 55.06 13.36ZM62.02 14.35L62.02 9.70C62.02 8.95 62.69 8.54 63.90 8.54L64.50 8.54L64.50 7.07L64.09 7.07C62.93 7.07 62.30 7.73 62.09 8.47L62.02 8.47L62.02 7.07L60.49 7.07L60.49 14.35ZM69.26 14.35L69.26 13.10L67.84 13.10L67.84 8.32L69.37 8.32L69.37 7.07L67.84 7.07L67.84 5.08L66.47 5.08L66.47 6.36C66.47 6.86 66.30 7.07 65.80 7.07L65.18 7.07L65.18 8.32L66.32 8.32L66.32 12.77C66.32 13.76 66.88 14.35 67.93 14.35Z"></path></g><defs data-v-423bf9ae=""><linearGradient data-v-423bf9ae="" gradientTransform="rotate(25)" id="8a1724a7-b470-4830-9ca0-bd99ab6daf05" x1="0%" y1="0%" x2="100%" y2="0%"><stop data-v-423bf9ae="" offset="0%" style="stop-color: rgb(65, 226, 150); stop-opacity: 1;"></stop><stop data-v-423bf9ae="" offset="100%" style="stop-color: rgb(0, 196, 238); stop-opacity: 1;"></stop></linearGradient></defs><g data-v-423bf9ae="" id="59a73573-33ab-491b-bf4b-cc377a26c6c3" transform="matrix(4.803586662404586,0,0,4.803586662404586,0.14261340152661717,-31.22538662899096)" stroke="none" fill="url(#8a1724a7-b470-4830-9ca0-bd99ab6daf05)"><path d="M16 19.586l7.496-12.954H8.504zM7.496 12.414L0 25.368h14.992zM24.504 12.414l-7.496 12.954H32z"></path></g><!----></svg>